<svg width="296" height="240" viewBox="0 0 296 240" fill="none" xmlns="http://www.w3.org/2000/svg">
<path d="M62.5428 52.4231L61.7695 52.0652C65.4887 43.978 71.4333 37.1236 78.9044 32.3079C86.3755 27.4922 95.0626 24.9154 103.944 24.8805C112.826 24.8456 121.533 27.354 129.041 32.1109C136.55 36.8677 142.548 43.6752 146.33 51.7329L145.565 52.0993C141.852 44.1876 135.964 37.5033 128.592 32.8324C121.22 28.1615 112.671 25.6982 103.951 25.7322C95.2308 25.7662 86.7015 28.2961 79.3661 33.0243C72.0307 37.7526 66.1941 44.4826 62.5428 52.4231Z" fill="black"/>
<path d="M48.4367 174.523C38.6388 174.523 32.2146 171.499 29.8522 165.781C26.1982 156.937 33.0304 142.614 48.1393 127.439L56.45 119.105L57.0533 119.702L48.7001 128.078C33.8546 142.963 27.0905 156.945 30.5915 165.457C32.8094 170.834 38.9618 173.671 48.3857 173.671C73.7683 173.671 115.076 152.949 140.484 127.473L148.794 119.139L149.398 119.736L141.104 128.078C115.568 153.682 73.9722 174.523 48.4367 174.523Z" fill="black"/>
<path d="M171.764 119.506H150.256V219.989H171.764V119.506Z" fill="white"/>
<path d="M172.188 220.415H149.831V119.08H172.188V220.415ZM150.681 219.563H171.339V119.932H150.681V219.563Z" fill="black"/>
<path d="M179.497 119.506H178.647V219.989H179.497V119.506Z" fill="black"/>
<path d="M202.211 219.563H171.798V220.415H202.211V219.563Z" fill="black"/>
<path d="M147.877 52.0056H53.9943C52.7224 52.0056 51.6914 53.0394 51.6914 54.3147V117.691C51.6914 118.966 52.7224 120 53.9943 120H147.877C149.149 120 150.18 118.966 150.18 117.691V54.3147C150.18 53.0394 149.149 52.0056 147.877 52.0056Z" fill="white"/>
<path d="M147.86 120.409H53.9859C53.2647 120.409 52.573 120.122 52.0631 119.61C51.5531 119.099 51.2666 118.406 51.2666 117.682V54.3147C51.2666 53.5907 51.5528 52.8964 52.0625 52.3837C52.5723 51.871 53.2639 51.5818 53.9859 51.5796H147.86C148.583 51.5796 149.277 51.8677 149.789 52.3807C150.3 52.8936 150.588 53.5893 150.588 54.3147V117.699C150.581 118.42 150.291 119.11 149.78 119.617C149.269 120.124 148.579 120.409 147.86 120.409ZM53.9859 52.4316C53.4893 52.4339 53.0138 52.6333 52.6634 52.9862C52.3131 53.3391 52.1164 53.8167 52.1164 54.3147V117.699C52.1186 118.196 52.3163 118.671 52.6664 119.022C53.0165 119.374 53.4907 119.572 53.9859 119.574H147.86C148.356 119.574 148.833 119.377 149.185 119.025C149.537 118.674 149.736 118.197 149.738 117.699V54.3147C149.738 53.8153 149.54 53.3363 149.188 52.9832C148.836 52.63 148.358 52.4316 147.86 52.4316H53.9859Z" fill="black"/>
<path d="M103.357 89.7689L52.1587 52.9088L52.6601 52.2101L103.357 88.7209L149.891 55.6183L150.375 56.317L103.357 89.7689Z" fill="black"/>
<path d="M95.043 83.0166L51.9492 118.674L52.4901 119.331L95.5839 83.6738L95.043 83.0166Z" fill="black"/>
<path d="M113.116 82.1888L112.576 82.8469L149.911 113.641L150.451 112.983L113.116 82.1888Z" fill="black"/>
<path d="M150.12 119.438L150.324 71.6286C150.325 65.5453 149.131 59.5213 146.81 53.9008C144.49 48.2803 141.087 43.1732 136.798 38.8713C132.508 34.5693 127.415 31.1568 121.81 28.8286C116.205 26.5003 110.198 25.302 104.131 25.302H201.319C213.572 25.302 225.324 30.1828 233.989 38.8707C242.653 47.5587 247.521 59.342 247.521 71.6286V119.506L150.12 119.438Z" fill="white"/>
<path d="M247.946 119.932H247.521L149.695 119.864L149.899 71.6286C149.886 59.4606 145.06 47.7948 136.48 39.1899C127.9 30.5851 116.266 25.7438 104.131 25.7281V24.876H201.319C213.68 24.8918 225.531 29.8225 234.272 38.5869C243.012 47.3513 247.93 59.2339 247.946 71.6286V119.932ZM150.545 119.012L247.096 119.08V71.6286C247.08 59.4598 242.252 47.794 233.671 39.1894C225.089 30.5848 213.455 25.7438 201.319 25.7281H113.019C123.634 27.8185 133.198 33.5365 140.078 41.9069C146.958 50.2772 150.73 60.7816 150.749 71.6286L150.545 119.012Z" fill="black"/>
<path d="M18.9159 78.2065L13.3414 64.8376L0 59.2481L13.3414 53.6586L18.9159 40.3153L24.4903 53.6927L37.8232 59.2822L24.4903 64.8376L18.9159 78.2065ZM2.2009 59.2481L13.9872 64.173L18.9159 75.9911L23.836 64.173L35.6223 59.2396L23.836 54.2976L18.9159 42.4881L13.9872 54.3062L2.2009 59.2481Z" fill="black"/>
<path d="M291.114 123.945L283.296 117.861L273.481 119.046L279.54 111.207L278.367 101.365L286.177 107.441L296 106.265L289.932 114.095L291.114 123.945ZM283.542 117.001L290.026 122.045L289.049 113.874L294.079 107.373L285.93 108.361L279.446 103.308L280.424 111.479L275.393 117.981L283.542 117.001Z" fill="black"/>
<path d="M233.508 84.2305C256.514 84.2305 275.164 65.5304 275.164 42.4625C275.164 19.3947 256.514 0.694519 233.508 0.694519C210.502 0.694519 191.853 19.3947 191.853 42.4625C191.853 65.5304 210.502 84.2305 233.508 84.2305Z" fill="white"/>
<path d="M233.508 84.6225C225.183 84.6242 217.045 82.1501 210.123 77.5133C203.201 72.8764 197.807 66.2852 194.621 58.5734C191.436 50.8616 190.604 42.3758 192.229 34.1895C193.854 26.0031 197.865 18.4841 203.753 12.5837C209.641 6.68327 217.142 2.66652 225.308 1.04161C233.473 -0.583295 241.936 0.256655 249.625 3.4552C257.314 6.65374 263.884 12.0672 268.504 19.0106C273.124 25.954 275.587 34.1155 275.58 42.4625C275.56 53.6422 271.12 64.3579 263.234 72.2607C255.347 80.1636 244.658 84.609 233.508 84.6225ZM233.508 1.12054C225.353 1.11885 217.381 3.54208 210.599 8.08377C203.818 12.6255 198.532 19.0816 195.41 26.6357C192.288 34.1898 191.47 42.5026 193.06 50.5227C194.65 58.5428 198.576 65.9101 204.342 71.6927C210.108 77.4753 217.454 81.4136 225.453 83.0095C233.451 84.6054 241.741 83.7872 249.276 80.6583C256.81 77.5295 263.25 72.2306 267.781 65.4318C272.312 58.6329 274.73 50.6395 274.73 42.4625C274.719 31.5029 270.373 20.9952 262.645 13.2448C254.917 5.49435 244.438 1.13407 233.508 1.12054Z" fill="black"/>
<path d="M228.588 66.1754L207.854 47.839L215.654 38.9691L228.078 49.9521L253.979 23.9813L262.324 32.3486L228.588 66.1754ZM209.043 47.7623L228.588 65.008L261.151 32.3486L254.013 25.1912L228.087 51.1195L215.697 40.1705L209.043 47.7623Z" fill="black"/>
<path d="M111.04 185.234L103.392 177.565L111.04 169.897L118.687 177.565L111.04 185.234ZM104.573 177.565L111.04 184.049L117.515 177.565L111.04 171.073L104.573 177.565Z" fill="black"/>
<path d="M256.928 197.435L243.332 183.802L256.928 170.169L270.524 183.802L256.928 197.435ZM244.504 183.802L256.928 196.242L269.377 183.777L256.953 171.32L244.504 183.802Z" fill="black"/>
<path d="M208.975 152.251C207.925 152.251 206.898 151.938 206.024 151.353C205.151 150.768 204.47 149.936 204.068 148.963C203.666 147.99 203.561 146.919 203.766 145.886C203.971 144.853 204.477 143.904 205.22 143.16C205.962 142.415 206.909 141.908 207.939 141.702C208.969 141.497 210.037 141.602 211.008 142.005C211.978 142.408 212.808 143.091 213.391 143.967C213.975 144.842 214.286 145.872 214.286 146.925C214.284 148.337 213.724 149.69 212.728 150.688C211.733 151.686 210.383 152.248 208.975 152.251ZM208.975 142.452C208.093 142.452 207.23 142.714 206.497 143.206C205.763 143.697 205.191 144.396 204.853 145.213C204.516 146.031 204.427 146.93 204.6 147.798C204.772 148.666 205.197 149.463 205.821 150.088C206.444 150.714 207.239 151.14 208.105 151.313C208.97 151.485 209.867 151.397 210.682 151.058C211.498 150.719 212.194 150.146 212.685 149.41C213.175 148.675 213.436 147.81 213.436 146.925C213.434 145.739 212.963 144.603 212.127 143.765C211.291 142.926 210.158 142.454 208.975 142.452Z" fill="black"/>
<path d="M77.0486 218.285C76.2923 218.285 75.5529 218.06 74.9241 217.639C74.2952 217.218 73.8051 216.619 73.5157 215.918C73.2263 215.218 73.1505 214.447 73.2981 213.703C73.4456 212.959 73.8098 212.276 74.3446 211.74C74.8794 211.203 75.5608 210.838 76.3025 210.69C77.0443 210.542 77.8132 210.618 78.5119 210.909C79.2107 211.199 79.8079 211.69 80.2281 212.321C80.6483 212.951 80.8725 213.693 80.8725 214.451C80.8703 215.467 80.4667 216.441 79.75 217.16C79.0334 217.878 78.0621 218.283 77.0486 218.285ZM77.0486 211.469C76.4603 211.469 75.8853 211.644 75.3962 211.971C74.9071 212.299 74.5259 212.765 74.3008 213.31C74.0757 213.855 74.0168 214.454 74.1315 215.033C74.2463 215.611 74.5296 216.143 74.9455 216.56C75.3614 216.977 75.8914 217.261 76.4683 217.376C77.0453 217.491 77.6433 217.432 78.1867 217.206C78.7302 216.98 79.1947 216.598 79.5215 216.108C79.8483 215.617 80.0228 215.041 80.0228 214.451C80.0228 213.66 79.7094 212.901 79.1516 212.342C78.5939 211.783 77.8374 211.469 77.0486 211.469Z" fill="black"/>
<path d="M37.7469 34.6662C36.9485 34.6662 36.1681 34.4288 35.5043 33.9841C34.8406 33.5394 34.3232 32.9073 34.0177 32.1677C33.7122 31.4282 33.6323 30.6144 33.788 29.8293C33.9438 29.0442 34.3282 28.323 34.8927 27.757C35.4572 27.191 36.1764 26.8055 36.9594 26.6494C37.7424 26.4932 38.554 26.5733 39.2915 26.8797C40.0291 27.186 40.6595 27.7048 41.103 28.3703C41.5465 29.0359 41.7833 29.8184 41.7833 30.6189C41.781 31.6916 41.355 32.7197 40.5985 33.4783C39.8421 34.2368 38.8167 34.6639 37.7469 34.6662ZM37.7469 27.4237C37.1166 27.4237 36.5005 27.6111 35.9765 27.9621C35.4524 28.3132 35.044 28.8123 34.8028 29.3961C34.5616 29.98 34.4985 30.6224 34.6215 31.2422C34.7444 31.8621 35.0479 32.4314 35.4936 32.8783C35.9392 33.3251 36.507 33.6294 37.1252 33.7527C37.7433 33.876 38.384 33.8127 38.9663 33.5709C39.5486 33.3291 40.0463 32.9195 40.3964 32.3941C40.7466 31.8686 40.9335 31.2508 40.9335 30.6189C40.9312 29.7721 40.5948 28.9607 39.9977 28.362C39.4005 27.7633 38.5913 27.4259 37.7469 27.4237Z" fill="black"/>
<path d="M247.894 238.914H118.687V239.766H247.894V238.914Z" fill="black"/>
<path d="M215.145 219.563H208.669V220.415H215.145V219.563Z" fill="black"/>
<path d="M231.29 199.966H224.815V200.818H231.29V199.966Z" fill="black"/>
<path d="M114.014 238.914H73.2246V239.766H114.014V238.914Z" fill="black"/>
<path d="M67.276 238.914H61.3276V239.766H67.276V238.914Z" fill="black"/>
<path d="M220.736 199.966H179.267V200.818H220.736V199.966Z" fill="black"/>
<path d="M150.205 199.966H120.812V200.818H150.205V199.966Z" fill="black"/>
</svg>
