<svg width="200" height="74" viewBox="0 0 200 74" fill="none" xmlns="http://www.w3.org/2000/svg">
<path d="M37.6364 72H49.4364V56.3H59.4364V46.2H49.4364V1.49998H38.9364L0.036377 47.5L2.33636 56.3H37.6364V72ZM14.6364 46.2L37.6364 18.5V46.2H14.6364Z" fill="#171717"/>
<path d="M100.7 73.2C119.1 73.2 131.3 57 131.3 37V36.8C131.3 16.8 119.2 0.799988 100.9 0.799988C82.5004 0.799988 70.3004 17 70.3004 37V37.2C70.3004 57.2 82.3004 73.2 100.7 73.2ZM100.9 62.1C90.0004 62.1 83.0004 50.8 83.0004 37V36.8C83.0004 22.9 89.9004 11.9 100.7 11.9C111.5 11.9 118.6 23.2 118.6 37V37.2C118.6 50.9 111.8 62.1 100.9 62.1Z" fill="#171717"/>
<path d="M178.164 72H189.964V56.3H199.964V46.2H189.964V1.49998H179.464L140.564 47.5L142.864 56.3H178.164V72ZM155.164 46.2L178.164 18.5V46.2H155.164Z" fill="#171717"/>
</svg>
